<?xml version="1.0" encoding="utf-8"?>
<!-- Generator: Adobe Illustrator 21.0.2, SVG Export Plug-In . SVG Version: 6.00 Build 0)  -->
<svg version="1.1" id="图层_1" xmlns="http://www.w3.org/2000/svg" xmlns:xlink="http://www.w3.org/1999/xlink" x="0px" y="0px"
	 viewBox="0 0 200 200" style="enable-background:new 0 0 200 200;" xml:space="preserve">
<style type="text/css">
	.st0{fill:#FFFFFF;}
</style>
<path class="st0" d="M154.8,185.6c-1.8-5-6.5-8.6-12-8.6c-5.6,0-10.3,3.6-12,8.6H112c-1.8-5-6.5-8.6-12-8.6c-5.6,0-10.3,3.6-12,8.6
	H69.3c-1.8-5-6.5-8.6-12-8.6s-10.3,3.6-12,8.6H27.3V23.1c0-4.7,3.8-8.6,8.6-8.6h128.3c4.7,0,8.6,3.8,8.6,8.6v162.5H154.8
	L154.8,185.6z M48.7,147.2h38.5V74.5H48.7V147.2z M151.3,44.5H48.7v12.8h102.6C151.3,57.4,151.3,44.5,151.3,44.5z M151.3,74.5h-47
	v12.8h47V74.5z M151.3,104.4h-47v12.8h47V104.4z M151.3,134.3h-47v12.8h47V134.3L151.3,134.3z"/>
</svg>
