<?xml version="1.0" standalone="no"?><!DOCTYPE svg PUBLIC "-//W3C//DTD SVG 1.1//EN" "http://www.w3.org/Graphics/SVG/1.1/DTD/svg11.dtd"><svg class="icon" width="200px" height="200.00px" viewBox="0 0 1024 1024" version="1.1" xmlns="http://www.w3.org/2000/svg"><path d="M134.604913 942.554519C119.200082 965.964278 115.965533 976.831432 113.894491 992.212992 112.172501 1004.941758 100.467622 1013.87749 87.715586 1012.1555 74.986821 1010.43351 66.051089 998.728631 67.773079 985.976596 75.778006 926.521395 144.029319 841.445773 256.307731 733.774848 289.839999 701.638788 313.110136 677.903248 335.402928 652.003585 343.803448 642.276668 358.486904 641.182971 368.237092 649.560221 377.964009 657.96074 379.057706 672.644197 370.680456 682.394384 347.200888 709.643715 323.023215 734.286791 288.513601 767.376926 238.692237 815.150518 197.783336 858.712215 168.067371 896.014245L368.00439 896.014245C352.855531 876.956002 334.774634 856.22231 313.994402 834.11568 305.19829 824.737814 305.663693 810.007817 315.018288 801.211705 324.396153 792.415594 339.12615 792.880996 347.922262 802.235591 419.664095 878.608182 462.178636 939.738833 468.391763 985.999866 470.113753 998.728631 461.17802 1010.43351 448.425985 1012.1555 435.69722 1013.87749 423.992341 1004.941758 422.270351 992.189722 420.50182 979.042095 413.311348 962.310866 401.187606 942.554519L134.604913 942.554519ZM644.383811 596.341417 794.266766 682.906327 794.266766 856.012879 644.383811 942.554519 494.454316 856.012879 494.454316 682.906327 644.383811 596.341417ZM168.137181 128.099714C183.28604 147.181226 201.390207 167.914919 222.17044 189.998279 230.966552 199.376144 230.501149 214.106141 221.146554 222.902253 211.768688 231.698365 197.038692 231.232962 188.24258 221.878367 116.500746 145.505776 73.986205 84.375126 67.773079 38.114093 66.051089 25.385328 74.986821 13.680449 87.738857 11.958458 100.467622 10.236468 112.172501 19.172201 113.894491 31.924236 115.732832 45.513996 129.392402 78.673942 131.440174 82.024842 131.696146 82.420434 397.371304 81.605979 398.092678 81.67579 410.123339 62.082334 417.313811 45.304565 419.128882 31.900966 420.850872 19.172201 432.555751 10.236468 445.307786 11.958458 458.036552 13.680449 466.972284 25.385328 465.250294 38.137363 457.245367 97.592564 388.994054 182.668186 276.715642 290.339111 232.176599 333.039813 196.038076 371.761321 169.114527 407.341361L276.645831 407.341361 276.645831 453.881636 138.863348 453.788555C113.80141 497.629494 106.401507 534.18688 116.942879 570.232323L271.828913 570.232323 271.828913 616.772597 142.307329 616.772597C144.680883 619.704634 147.194057 622.590131 149.870123 625.475628 176.863483 654.633111 198.900303 674.83159 222.403141 690.492392 233.084134 697.636324 235.969631 712.08708 228.848969 722.768073 221.705037 733.449066 207.254282 736.334563 196.573289 729.213901 169.486849 711.133004 144.960124 688.700592 115.709562 657.076475 55.486446 591.966631 53.927347 515.128637 98.024257 432.705811 128.508137 375.763785 172.209455 326.082042 244.509772 256.737033 294.331136 208.963441 335.240037 165.401744 364.956002 128.099714L168.137181 128.099714ZM470.881667 294.853518 621.369645 381.74421 621.369645 555.548866 470.881667 642.416288 320.370419 555.548866 320.370419 381.74421 470.881667 294.853518ZM818.886571 294.853518 969.374549 381.74421 969.374549 555.548866 818.886571 642.416288 668.375323 555.548866 668.375323 381.74421 818.886571 294.853518Z" fill="#ffffff" /></svg>