<?xml version="1.0" encoding="utf-8"?>
<!-- Generator: Adobe Illustrator 21.0.2, SVG Export Plug-In . SVG Version: 6.00 Build 0)  -->
<svg version="1.1" id="图层_1" xmlns="http://www.w3.org/2000/svg" xmlns:xlink="http://www.w3.org/1999/xlink" x="0px" y="0px"
	 viewBox="0 0 200 200" style="enable-background:new 0 0 200 200;" xml:space="preserve">
<style type="text/css">
	.st0{fill:#FFFFFF;}
</style>
<g>
	<path class="st0" d="M136.8,63.4c0.1-0.1-23.5-18.4-23.5-18.4c-1.3-1.1-3.8-1.4-5.4-0.8L28,75c-1.6,0.6-2.9,2.5-2.9,4.3L25,175
		h-6.2c-3.5,0-6.3,2.8-6.3,6.2c0,3.4,2.9,6.2,6.3,6.2h9.3H29h107.2c1.7,0,3.1-1.4,3.1-3.1V68.4C139.3,66.7,138.2,64.4,136.8,63.4z
		 M96.3,138.6c0,1.7-1.4,3.5-3,3.9l-44.9,10.9c-1.7,0.4-3-0.7-3-2.4v-4.6c0-1.7,1.4-3.5,3-3.9l44.9-10.9c1.7-0.4,3,0.7,3,2.4V138.6z
		 M93.3,120.8l-44.9,10.9c-1.7,0.4-3-0.7-3-2.4v-4.6c0-1.7,1.4-3.5,3-3.9L93.2,110c1.7-0.4,3,0.7,3,2.4v4.5h0.1
		C96.3,118.6,94.9,120.4,93.3,120.8z M96.3,95.3c0,1.7-1.4,3.5-3,3.9l-44.9,10.9c-1.7,0.4-3-0.7-3-2.4v-4.6c0-1.7,1.4-3.5,3-3.9
		l44.9-10.9c1.7-0.4,3,0.7,3,2.4V95.3z"/>
	<path class="st0" d="M181.7,175.3c-0.6,0-1.1,0.1-1.6,0.2c-0.4-0.1-0.7-0.2-1.2-0.2h-11.5c-1.7,0-3.1-1.4-3.1-3V35.7
		c0-1.7-1.1-3.9-2.5-4.9l-24-17.6c-1.4-1-3.8-1.4-5.5-0.9L59,32.2c-1.6,0.5-3,2.3-3,4v14.4h0.1c0,3.4,2.8,6.1,6.2,6.1
		c3.5,0,6.3-2.7,6.3-6.1v-6.2c0.3-1.5,1.5-2.9,2.9-3.4l58.6-15c1.6-0.5,4.1-0.1,5.5,0.9L149.4,37c1.4,1,2.5,3.2,2.5,4.9v142.6
		c0,1.7,1.4,3,3.1,3h24c0.4,0,0.8-0.1,1.1-0.2c0.5,0.1,1.1,0.2,1.7,0.2c3.5,0,6.2-2.7,6.2-6.1C188,178,185.2,175.3,181.7,175.3z"/>
</g>
</svg>
