<?xml version="1.0" encoding="utf-8"?>
<!-- Generator: Adobe Illustrator 21.0.2, SVG Export Plug-In . SVG Version: 6.00 Build 0)  -->
<svg version="1.1" id="图层_1" xmlns="http://www.w3.org/2000/svg" xmlns:xlink="http://www.w3.org/1999/xlink" x="0px" y="0px"
	 viewBox="0 0 200 200" style="enable-background:new 0 0 200 200;" xml:space="preserve">
<style type="text/css">
	.st0{fill:#FFFFFF;}
</style>
<path class="st0" d="M57.7,76.3c0,4,3.1,7.3,6.9,7.3c0,0,0.1,0,0.1,0c1.4,19.3,16.7,38.7,35.3,38.7c18.6,0,33.9-19.4,35.3-38.7
	c0,0,0.1,0,0.1,0c3.8,0,6.9-3.3,6.9-7.3c0-3-1.7-5.6-4.1-6.7c1.4-4.4,2.2-9,2.2-13.8c0-23.7-18.1-42.8-40.4-42.8
	c-22.3,0-40.4,19.2-40.4,42.8c0,4.8,0.8,9.5,2.2,13.8C59.4,70.8,57.7,73.3,57.7,76.3z M188.4,167.1c-16.5-16-36.6-27.3-58.3-32.7
	c-0.6-0.3-1.2-0.5-1.8-0.5h-2c-0.6,0-1.2,0.2-1.8,0.4c-6.5,3.5-15.5,5.5-24.6,5.5c-9.1,0-18.1-2-24.6-5.5c-0.5-0.3-1.2-0.4-1.8-0.4
	h-1.4c-0.3,0-0.6,0-0.9,0.1c-22.2,5.3-42.9,16.7-59.7,33.1c-0.7,0.7-1.2,1.7-1.2,2.7l0,13.5c0,2.1,1.7,3.8,3.8,3.8h171.6
	c2.1,0,3.8-1.7,3.8-3.8v-13.5C189.6,168.8,189.1,167.8,188.4,167.1z"/>
</svg>
