<?xml version="1.0" standalone="no"?><!DOCTYPE svg PUBLIC "-//W3C//DTD SVG 1.1//EN" "http://www.w3.org/Graphics/SVG/1.1/DTD/svg11.dtd"><svg class="icon" width="200px" height="200.00px" viewBox="0 0 1024 1024" version="1.1" xmlns="http://www.w3.org/2000/svg"><path d="M846.4 316.784c-47.424 0-89.936-20.16-119.504-52.064l-391.968 211.84c2.672 11.408 4.208 23.232 4.208 35.44 0 12.832-1.728 25.232-4.672 37.184L718.88 754.72c30.304-33.584 74.448-54.88 123.776-54.88C933.968 699.84 1008 772.4 1008 861.904s-74.032 162.064-165.344 162.064-165.328-72.56-165.328-162.064c0-14.032 2.016-27.6 5.44-40.576L299.072 616.16c-29.616 33.168-73.008 54.224-121.504 54.224C88.336 670.368 16 599.472 16 512s72.336-158.368 161.584-158.368c48.896 0 92.608 21.36 122.24 55.008l390.256-210.912c-3.28-12.592-5.216-25.712-5.216-39.312 0-87.472 72.336-158.368 161.568-158.368C935.664 0.032 1008 70.944 1008 158.4S935.664 316.784 846.4 316.784z" fill="#ffffff" /></svg>